<mxfile host="app.diagrams.net" modified="2022-03-11T11:00:39.988Z" agent="5.0 (Macintosh; Intel Mac OS X 10_15_7) AppleWebKit/605.1.15 (KHTML, like Gecko) Version/15.3 Safari/605.1.15" etag="WtoR5dv_YB7MMokyX2jE" version="17.1.1" type="github" pages="2">
  <diagram id="prtHgNgQTEPvFCAcTncT" name="Page-1">
    <mxGraphModel dx="946" dy="673" grid="1" gridSize="10" guides="1" tooltips="1" connect="1" arrows="1" fold="1" page="1" pageScale="1" pageWidth="827" pageHeight="1169" math="0" shadow="0">
      <root>
        <mxCell id="0" />
        <mxCell id="1" parent="0" />
        <mxCell id="2SY49xS7z_YnrK-nnj0o-42" style="edgeStyle=orthogonalEdgeStyle;rounded=0;orthogonalLoop=1;jettySize=auto;html=1;exitX=0;exitY=0;exitDx=95;exitDy=50;exitPerimeter=0;entryX=0.5;entryY=0;entryDx=0;entryDy=0;" parent="1" source="2SY49xS7z_YnrK-nnj0o-31" target="2SY49xS7z_YnrK-nnj0o-38" edge="1">
          <mxGeometry relative="1" as="geometry" />
        </mxCell>
        <mxCell id="2SY49xS7z_YnrK-nnj0o-31" value="ReLU" style="shape=cube;whiteSpace=wrap;html=1;boundedLbl=1;backgroundOutline=1;darkOpacity=0.05;darkOpacity2=0.1;fillColor=#dae8fc;strokeColor=#6c8ebf;" parent="1" vertex="1">
          <mxGeometry x="350" y="260" width="170" height="50" as="geometry" />
        </mxCell>
        <mxCell id="2SY49xS7z_YnrK-nnj0o-29" value="BatchNorm" style="shape=cube;whiteSpace=wrap;html=1;boundedLbl=1;backgroundOutline=1;darkOpacity=0.05;darkOpacity2=0.1;fillColor=#f8cecc;fontStyle=1;strokeColor=#b85450;" parent="1" vertex="1">
          <mxGeometry x="350" y="230" width="170" height="50" as="geometry" />
        </mxCell>
        <mxCell id="2SY49xS7z_YnrK-nnj0o-30" value="Conv2D" style="shape=cube;whiteSpace=wrap;html=1;boundedLbl=1;backgroundOutline=1;darkOpacity=0.05;darkOpacity2=0.1;fillColor=#FFF2CC;fontStyle=1" parent="1" vertex="1">
          <mxGeometry x="350" y="200" width="170" height="50" as="geometry" />
        </mxCell>
        <mxCell id="2SY49xS7z_YnrK-nnj0o-15" value="Conv2D" style="shape=cube;whiteSpace=wrap;html=1;boundedLbl=1;backgroundOutline=1;darkOpacity=0.05;darkOpacity2=0.1;fillColor=#FFF2CC;fontStyle=1" parent="1" vertex="1">
          <mxGeometry x="110" y="240" width="170" height="50" as="geometry" />
        </mxCell>
        <mxCell id="2SY49xS7z_YnrK-nnj0o-7" value="ReLU" style="shape=cube;whiteSpace=wrap;html=1;boundedLbl=1;backgroundOutline=1;darkOpacity=0.05;darkOpacity2=0.1;fillColor=#dae8fc;fontStyle=1;strokeColor=#6c8ebf;" parent="1" vertex="1">
          <mxGeometry x="110" y="210" width="170" height="50" as="geometry" />
        </mxCell>
        <mxCell id="2SY49xS7z_YnrK-nnj0o-21" value="ReLU" style="shape=cube;whiteSpace=wrap;html=1;boundedLbl=1;backgroundOutline=1;darkOpacity=0.05;darkOpacity2=0.1;fillColor=#dae8fc;strokeColor=#6c8ebf;" parent="1" vertex="1">
          <mxGeometry x="350" y="170" width="170" height="50" as="geometry" />
        </mxCell>
        <mxCell id="2SY49xS7z_YnrK-nnj0o-23" value="BatchNorm" style="shape=cube;whiteSpace=wrap;html=1;boundedLbl=1;backgroundOutline=1;darkOpacity=0.05;darkOpacity2=0.1;fillColor=#f8cecc;fontStyle=1;strokeColor=#b85450;" parent="1" vertex="1">
          <mxGeometry x="350" y="140" width="170" height="50" as="geometry" />
        </mxCell>
        <mxCell id="2SY49xS7z_YnrK-nnj0o-33" style="edgeStyle=orthogonalEdgeStyle;rounded=0;orthogonalLoop=1;jettySize=auto;html=1;entryX=0;entryY=0.5;entryDx=0;entryDy=0;" parent="1" source="2SY49xS7z_YnrK-nnj0o-26" target="2SY49xS7z_YnrK-nnj0o-35" edge="1">
          <mxGeometry relative="1" as="geometry">
            <mxPoint x="80" y="320" as="targetPoint" />
            <Array as="points">
              <mxPoint x="50" y="205" />
              <mxPoint x="50" y="333" />
            </Array>
          </mxGeometry>
        </mxCell>
        <mxCell id="2SY49xS7z_YnrK-nnj0o-26" value="Conv2D" style="shape=cube;whiteSpace=wrap;html=1;boundedLbl=1;backgroundOutline=1;darkOpacity=0.05;darkOpacity2=0.1;fillColor=#FFF2CC;fontStyle=1" parent="1" vertex="1">
          <mxGeometry x="110" y="180" width="170" height="50" as="geometry" />
        </mxCell>
        <mxCell id="2SY49xS7z_YnrK-nnj0o-39" style="edgeStyle=orthogonalEdgeStyle;rounded=0;orthogonalLoop=1;jettySize=auto;html=1;exitX=0;exitY=0;exitDx=0;exitDy=15;exitPerimeter=0;entryX=0;entryY=0.5;entryDx=0;entryDy=0;" parent="1" source="2SY49xS7z_YnrK-nnj0o-28" target="2SY49xS7z_YnrK-nnj0o-38" edge="1">
          <mxGeometry relative="1" as="geometry" />
        </mxCell>
        <mxCell id="2SY49xS7z_YnrK-nnj0o-28" value="Conv2D" style="shape=cube;whiteSpace=wrap;html=1;boundedLbl=1;backgroundOutline=1;darkOpacity=0.05;darkOpacity2=0.1;fillColor=#FFF2CC;fontStyle=1" parent="1" vertex="1">
          <mxGeometry x="350" y="110" width="170" height="50" as="geometry" />
        </mxCell>
        <mxCell id="2SY49xS7z_YnrK-nnj0o-32" value="" style="endArrow=classic;html=1;rounded=0;" parent="1" edge="1">
          <mxGeometry width="50" height="50" relative="1" as="geometry">
            <mxPoint x="199.5" y="130" as="sourcePoint" />
            <mxPoint x="199.5" y="190" as="targetPoint" />
            <Array as="points">
              <mxPoint x="200" y="170" />
            </Array>
          </mxGeometry>
        </mxCell>
        <mxCell id="2SY49xS7z_YnrK-nnj0o-43" style="edgeStyle=orthogonalEdgeStyle;rounded=0;orthogonalLoop=1;jettySize=auto;html=1;exitX=0.5;exitY=1;exitDx=0;exitDy=0;" parent="1" source="2SY49xS7z_YnrK-nnj0o-35" edge="1">
          <mxGeometry relative="1" as="geometry">
            <mxPoint x="200" y="380" as="targetPoint" />
          </mxGeometry>
        </mxCell>
        <mxCell id="2SY49xS7z_YnrK-nnj0o-35" value="" style="shape=orEllipse;perimeter=ellipsePerimeter;whiteSpace=wrap;html=1;backgroundOutline=1;fillColor=#ffe6cc;strokeColor=#d79b00;" parent="1" vertex="1">
          <mxGeometry x="190" y="320" width="20" height="25" as="geometry" />
        </mxCell>
        <mxCell id="2SY49xS7z_YnrK-nnj0o-36" style="edgeStyle=orthogonalEdgeStyle;rounded=0;orthogonalLoop=1;jettySize=auto;html=1;exitX=0;exitY=0;exitDx=95;exitDy=50;exitPerimeter=0;" parent="1" source="2SY49xS7z_YnrK-nnj0o-15" edge="1">
          <mxGeometry relative="1" as="geometry">
            <mxPoint x="200" y="320" as="targetPoint" />
          </mxGeometry>
        </mxCell>
        <mxCell id="2SY49xS7z_YnrK-nnj0o-44" style="edgeStyle=orthogonalEdgeStyle;rounded=0;orthogonalLoop=1;jettySize=auto;html=1;exitX=0.5;exitY=1;exitDx=0;exitDy=0;" parent="1" source="2SY49xS7z_YnrK-nnj0o-38" edge="1">
          <mxGeometry relative="1" as="geometry">
            <mxPoint x="440" y="390" as="targetPoint" />
          </mxGeometry>
        </mxCell>
        <mxCell id="2SY49xS7z_YnrK-nnj0o-38" value="" style="shape=orEllipse;perimeter=ellipsePerimeter;whiteSpace=wrap;html=1;backgroundOutline=1;fillColor=#ffe6cc;strokeColor=#d79b00;" parent="1" vertex="1">
          <mxGeometry x="430" y="330" width="20" height="25" as="geometry" />
        </mxCell>
        <mxCell id="2SY49xS7z_YnrK-nnj0o-40" value="" style="endArrow=classic;html=1;rounded=0;" parent="1" edge="1">
          <mxGeometry width="50" height="50" relative="1" as="geometry">
            <mxPoint x="435" y="80" as="sourcePoint" />
            <mxPoint x="435" y="120" as="targetPoint" />
            <Array as="points" />
          </mxGeometry>
        </mxCell>
        <mxCell id="l9V-iRnNjEfV3Otmuw3X-1" style="edgeStyle=orthogonalEdgeStyle;rounded=0;orthogonalLoop=1;jettySize=auto;html=1;exitX=0;exitY=0;exitDx=95;exitDy=50;exitPerimeter=0;entryX=0.5;entryY=0;entryDx=0;entryDy=0;" parent="1" source="l9V-iRnNjEfV3Otmuw3X-2" target="l9V-iRnNjEfV3Otmuw3X-10" edge="1">
          <mxGeometry relative="1" as="geometry" />
        </mxCell>
        <mxCell id="l9V-iRnNjEfV3Otmuw3X-2" value="ReLU" style="shape=cube;whiteSpace=wrap;html=1;boundedLbl=1;backgroundOutline=1;darkOpacity=0.05;darkOpacity2=0.1;fillColor=#dae8fc;strokeColor=#6c8ebf;" parent="1" vertex="1">
          <mxGeometry x="620" y="260" width="170" height="50" as="geometry" />
        </mxCell>
        <mxCell id="l9V-iRnNjEfV3Otmuw3X-3" value="BatchNorm" style="shape=cube;whiteSpace=wrap;html=1;boundedLbl=1;backgroundOutline=1;darkOpacity=0.05;darkOpacity2=0.1;fillColor=#f8cecc;fontStyle=1;strokeColor=#b85450;" parent="1" vertex="1">
          <mxGeometry x="620" y="230" width="170" height="50" as="geometry" />
        </mxCell>
        <mxCell id="l9V-iRnNjEfV3Otmuw3X-4" value="Conv2D" style="shape=cube;whiteSpace=wrap;html=1;boundedLbl=1;backgroundOutline=1;darkOpacity=0.05;darkOpacity2=0.1;fillColor=#FFF2CC;fontStyle=1" parent="1" vertex="1">
          <mxGeometry x="620" y="200" width="170" height="50" as="geometry" />
        </mxCell>
        <mxCell id="l9V-iRnNjEfV3Otmuw3X-5" value="ReLU" style="shape=cube;whiteSpace=wrap;html=1;boundedLbl=1;backgroundOutline=1;darkOpacity=0.05;darkOpacity2=0.1;fillColor=#dae8fc;strokeColor=#6c8ebf;" parent="1" vertex="1">
          <mxGeometry x="620" y="170" width="170" height="50" as="geometry" />
        </mxCell>
        <mxCell id="l9V-iRnNjEfV3Otmuw3X-6" value="BatchNorm" style="shape=cube;whiteSpace=wrap;html=1;boundedLbl=1;backgroundOutline=1;darkOpacity=0.05;darkOpacity2=0.1;fillColor=#f8cecc;fontStyle=1;strokeColor=#b85450;" parent="1" vertex="1">
          <mxGeometry x="620" y="140" width="170" height="50" as="geometry" />
        </mxCell>
        <mxCell id="l9V-iRnNjEfV3Otmuw3X-7" style="edgeStyle=orthogonalEdgeStyle;rounded=0;orthogonalLoop=1;jettySize=auto;html=1;entryX=0;entryY=0.5;entryDx=0;entryDy=0;" parent="1" target="l9V-iRnNjEfV3Otmuw3X-10" edge="1">
          <mxGeometry relative="1" as="geometry">
            <mxPoint x="710" y="90" as="sourcePoint" />
            <Array as="points">
              <mxPoint x="590" y="90" />
              <mxPoint x="590" y="343" />
            </Array>
          </mxGeometry>
        </mxCell>
        <mxCell id="l9V-iRnNjEfV3Otmuw3X-8" value="Conv2D" style="shape=cube;whiteSpace=wrap;html=1;boundedLbl=1;backgroundOutline=1;darkOpacity=0.05;darkOpacity2=0.1;fillColor=#FFF2CC;fontStyle=1" parent="1" vertex="1">
          <mxGeometry x="620" y="110" width="170" height="50" as="geometry" />
        </mxCell>
        <mxCell id="l9V-iRnNjEfV3Otmuw3X-9" style="edgeStyle=orthogonalEdgeStyle;rounded=0;orthogonalLoop=1;jettySize=auto;html=1;exitX=0.5;exitY=1;exitDx=0;exitDy=0;" parent="1" source="l9V-iRnNjEfV3Otmuw3X-10" edge="1">
          <mxGeometry relative="1" as="geometry">
            <mxPoint x="710" y="390" as="targetPoint" />
          </mxGeometry>
        </mxCell>
        <mxCell id="l9V-iRnNjEfV3Otmuw3X-10" value="" style="shape=orEllipse;perimeter=ellipsePerimeter;whiteSpace=wrap;html=1;backgroundOutline=1;fillColor=#ffe6cc;strokeColor=#d79b00;" parent="1" vertex="1">
          <mxGeometry x="700" y="330" width="20" height="25" as="geometry" />
        </mxCell>
        <mxCell id="l9V-iRnNjEfV3Otmuw3X-11" value="" style="endArrow=classic;html=1;rounded=0;" parent="1" edge="1">
          <mxGeometry width="50" height="50" relative="1" as="geometry">
            <mxPoint x="709.5" y="80" as="sourcePoint" />
            <mxPoint x="709.5" y="120" as="targetPoint" />
            <Array as="points" />
          </mxGeometry>
        </mxCell>
        <mxCell id="l9V-iRnNjEfV3Otmuw3X-12" value="EDSR" style="text;strokeColor=none;fillColor=none;html=1;align=center;verticalAlign=middle;whiteSpace=wrap;rounded=0;hachureGap=4;" parent="1" vertex="1">
          <mxGeometry x="165" y="410" width="60" height="30" as="geometry" />
        </mxCell>
        <mxCell id="l9V-iRnNjEfV3Otmuw3X-13" value="proposed&amp;nbsp;" style="text;strokeColor=none;fillColor=none;html=1;align=center;verticalAlign=middle;whiteSpace=wrap;rounded=0;hachureGap=4;" parent="1" vertex="1">
          <mxGeometry x="410" y="410" width="60" height="30" as="geometry" />
        </mxCell>
        <mxCell id="l9V-iRnNjEfV3Otmuw3X-14" value="ReSNET" style="text;strokeColor=none;fillColor=none;html=1;align=center;verticalAlign=middle;whiteSpace=wrap;rounded=0;hachureGap=4;" parent="1" vertex="1">
          <mxGeometry x="680" y="410" width="60" height="30" as="geometry" />
        </mxCell>
      </root>
    </mxGraphModel>
  </diagram>
  <diagram id="4lq2EQWnJLexFKyNo0s5" name="Page-2">
    <mxGraphModel dx="946" dy="673" grid="1" gridSize="10" guides="1" tooltips="1" connect="1" arrows="1" fold="1" page="1" pageScale="1" pageWidth="827" pageHeight="1169" math="0" shadow="0">
      <root>
        <mxCell id="oV6tERWwScY6kxOQjTkd-0" />
        <mxCell id="oV6tERWwScY6kxOQjTkd-1" parent="oV6tERWwScY6kxOQjTkd-0" />
        <mxCell id="IdDIcmcxiWaVZtbqf-ap-47" style="edgeStyle=orthogonalEdgeStyle;rounded=0;orthogonalLoop=1;jettySize=auto;html=1;fontSize=9;strokeWidth=2;" edge="1" parent="oV6tERWwScY6kxOQjTkd-1" source="IdDIcmcxiWaVZtbqf-ap-46">
          <mxGeometry relative="1" as="geometry">
            <mxPoint x="1010" y="975" as="targetPoint" />
          </mxGeometry>
        </mxCell>
        <mxCell id="IdDIcmcxiWaVZtbqf-ap-46" value="" style="shape=cube;whiteSpace=wrap;html=1;boundedLbl=1;backgroundOutline=1;darkOpacity=0.05;darkOpacity2=0.1;fontSize=9;strokeWidth=1;fillColor=#fff2cc;strokeColor=#d6b656;" vertex="1" parent="oV6tERWwScY6kxOQjTkd-1">
          <mxGeometry x="940" y="895" width="40" height="160" as="geometry" />
        </mxCell>
        <mxCell id="IdDIcmcxiWaVZtbqf-ap-43" style="edgeStyle=orthogonalEdgeStyle;rounded=0;orthogonalLoop=1;jettySize=auto;html=1;exitX=0;exitY=0;exitDx=40;exitDy=72.5;exitPerimeter=0;entryX=0.5;entryY=1;entryDx=0;entryDy=0;fontSize=9;strokeWidth=2;" edge="1" parent="oV6tERWwScY6kxOQjTkd-1" source="IdDIcmcxiWaVZtbqf-ap-28" target="IdDIcmcxiWaVZtbqf-ap-36">
          <mxGeometry relative="1" as="geometry" />
        </mxCell>
        <mxCell id="IdDIcmcxiWaVZtbqf-ap-28" value="" style="shape=cube;whiteSpace=wrap;html=1;boundedLbl=1;backgroundOutline=1;darkOpacity=0.05;darkOpacity2=0.1;fontSize=9;strokeWidth=1;fillColor=#1ba1e2;strokeColor=#006EAF;fontColor=#ffffff;" vertex="1" parent="oV6tERWwScY6kxOQjTkd-1">
          <mxGeometry x="650" y="915" width="40" height="125" as="geometry" />
        </mxCell>
        <mxCell id="IdDIcmcxiWaVZtbqf-ap-29" value="" style="shape=cube;whiteSpace=wrap;html=1;boundedLbl=1;backgroundOutline=1;darkOpacity=0.05;darkOpacity2=0.1;fontSize=9;strokeWidth=1;fillColor=#fff2cc;strokeColor=#d6b656;" vertex="1" parent="oV6tERWwScY6kxOQjTkd-1">
          <mxGeometry x="630" y="915" width="40" height="125" as="geometry" />
        </mxCell>
        <mxCell id="IdDIcmcxiWaVZtbqf-ap-26" value="" style="shape=cube;whiteSpace=wrap;html=1;boundedLbl=1;backgroundOutline=1;darkOpacity=0.05;darkOpacity2=0.1;fontSize=9;strokeWidth=1;fillColor=#60a917;fontColor=#ffffff;strokeColor=#2D7600;" vertex="1" parent="oV6tERWwScY6kxOQjTkd-1">
          <mxGeometry x="610" y="915" width="40" height="125" as="geometry" />
        </mxCell>
        <mxCell id="IdDIcmcxiWaVZtbqf-ap-22" value="" style="shape=cube;whiteSpace=wrap;html=1;boundedLbl=1;backgroundOutline=1;darkOpacity=0.05;darkOpacity2=0.1;fontSize=9;strokeWidth=1;fillColor=#1ba1e2;strokeColor=#006EAF;fontColor=#ffffff;" vertex="1" parent="oV6tERWwScY6kxOQjTkd-1">
          <mxGeometry x="581" y="930" width="40" height="90" as="geometry" />
        </mxCell>
        <mxCell id="IdDIcmcxiWaVZtbqf-ap-23" value="" style="shape=cube;whiteSpace=wrap;html=1;boundedLbl=1;backgroundOutline=1;darkOpacity=0.05;darkOpacity2=0.1;fontSize=9;strokeWidth=1;fillColor=#fff2cc;strokeColor=#d6b656;" vertex="1" parent="oV6tERWwScY6kxOQjTkd-1">
          <mxGeometry x="561" y="930" width="40" height="90" as="geometry" />
        </mxCell>
        <mxCell id="IdDIcmcxiWaVZtbqf-ap-21" value="MaxPooling" style="shape=cube;whiteSpace=wrap;html=1;boundedLbl=1;backgroundOutline=1;darkOpacity=0.05;darkOpacity2=0.1;fillColor=#b0e3e6;strokeColor=#0e8088;fontSize=9;horizontal=0;" vertex="1" parent="oV6tERWwScY6kxOQjTkd-1">
          <mxGeometry x="536" y="930" width="40" height="90" as="geometry" />
        </mxCell>
        <mxCell id="IdDIcmcxiWaVZtbqf-ap-20" value="" style="shape=cube;whiteSpace=wrap;html=1;boundedLbl=1;backgroundOutline=1;darkOpacity=0.05;darkOpacity2=0.1;fontSize=9;strokeWidth=1;fillColor=#1ba1e2;strokeColor=#006EAF;fontColor=#ffffff;" vertex="1" parent="oV6tERWwScY6kxOQjTkd-1">
          <mxGeometry x="501" y="910" width="40" height="120" as="geometry" />
        </mxCell>
        <mxCell id="IdDIcmcxiWaVZtbqf-ap-34" style="edgeStyle=orthogonalEdgeStyle;rounded=0;orthogonalLoop=1;jettySize=auto;html=1;exitX=0;exitY=0;exitDx=10;exitDy=0;exitPerimeter=0;entryX=0.5;entryY=0;entryDx=0;entryDy=0;fontSize=9;strokeWidth=2;" edge="1" parent="oV6tERWwScY6kxOQjTkd-1" source="IdDIcmcxiWaVZtbqf-ap-19" target="IdDIcmcxiWaVZtbqf-ap-36">
          <mxGeometry relative="1" as="geometry" />
        </mxCell>
        <mxCell id="IdDIcmcxiWaVZtbqf-ap-19" value="" style="shape=cube;whiteSpace=wrap;html=1;boundedLbl=1;backgroundOutline=1;darkOpacity=0.05;darkOpacity2=0.1;fontSize=9;strokeWidth=1;fillColor=#fff2cc;strokeColor=#d6b656;" vertex="1" parent="oV6tERWwScY6kxOQjTkd-1">
          <mxGeometry x="481" y="910" width="40" height="120" as="geometry" />
        </mxCell>
        <mxCell id="IdDIcmcxiWaVZtbqf-ap-18" value="MaxPooling" style="shape=cube;whiteSpace=wrap;html=1;boundedLbl=1;backgroundOutline=1;darkOpacity=0.05;darkOpacity2=0.1;fillColor=#b0e3e6;strokeColor=#0e8088;fontSize=9;horizontal=0;" vertex="1" parent="oV6tERWwScY6kxOQjTkd-1">
          <mxGeometry x="451" y="910" width="40" height="120" as="geometry" />
        </mxCell>
        <mxCell id="IdDIcmcxiWaVZtbqf-ap-17" value="" style="shape=cube;whiteSpace=wrap;html=1;boundedLbl=1;backgroundOutline=1;darkOpacity=0.05;darkOpacity2=0.1;fontSize=9;strokeWidth=1;fillColor=#1ba1e2;strokeColor=#006EAF;fontColor=#ffffff;" vertex="1" parent="oV6tERWwScY6kxOQjTkd-1">
          <mxGeometry x="426" y="890" width="40" height="160" as="geometry" />
        </mxCell>
        <mxCell id="IdDIcmcxiWaVZtbqf-ap-15" style="edgeStyle=orthogonalEdgeStyle;rounded=0;orthogonalLoop=1;jettySize=auto;html=1;fontSize=9;strokeWidth=2;" edge="1" parent="oV6tERWwScY6kxOQjTkd-1" source="oV6tERWwScY6kxOQjTkd-33">
          <mxGeometry relative="1" as="geometry">
            <mxPoint x="750" y="245" as="targetPoint" />
          </mxGeometry>
        </mxCell>
        <mxCell id="oV6tERWwScY6kxOQjTkd-33" value="CONV2DBLOCK" style="shape=cube;whiteSpace=wrap;html=1;boundedLbl=1;backgroundOutline=1;darkOpacity=0.05;darkOpacity2=0.1;fillColor=#fff2cc;strokeColor=#d6b656;fontSize=9;horizontal=0;" vertex="1" parent="oV6tERWwScY6kxOQjTkd-1">
          <mxGeometry x="670" y="120" width="30" height="250" as="geometry" />
        </mxCell>
        <mxCell id="oV6tERWwScY6kxOQjTkd-31" value="Upsampling" style="shape=cube;whiteSpace=wrap;html=1;boundedLbl=1;backgroundOutline=1;darkOpacity=0.05;darkOpacity2=0.1;fillColor=#d0cee2;strokeColor=#56517e;fontSize=9;horizontal=0;" vertex="1" parent="oV6tERWwScY6kxOQjTkd-1">
          <mxGeometry x="640" y="120" width="40" height="240" as="geometry" />
        </mxCell>
        <mxCell id="oV6tERWwScY6kxOQjTkd-22" style="edgeStyle=orthogonalEdgeStyle;rounded=0;orthogonalLoop=1;jettySize=auto;html=1;fontSize=9;" edge="1" parent="oV6tERWwScY6kxOQjTkd-1" source="oV6tERWwScY6kxOQjTkd-19">
          <mxGeometry relative="1" as="geometry">
            <mxPoint x="400" y="440" as="targetPoint" />
            <Array as="points">
              <mxPoint x="275" y="380" />
              <mxPoint x="400" y="380" />
            </Array>
          </mxGeometry>
        </mxCell>
        <mxCell id="oV6tERWwScY6kxOQjTkd-19" value="BLOCK" style="shape=cube;whiteSpace=wrap;html=1;boundedLbl=1;backgroundOutline=1;darkOpacity=0.05;darkOpacity2=0.1;fillColor=#bac8d3;strokeColor=#23445d;fontSize=9;" vertex="1" parent="oV6tERWwScY6kxOQjTkd-1">
          <mxGeometry x="240" y="120" width="70" height="250" as="geometry" />
        </mxCell>
        <mxCell id="oV6tERWwScY6kxOQjTkd-21" style="edgeStyle=orthogonalEdgeStyle;rounded=0;orthogonalLoop=1;jettySize=auto;html=1;fontSize=9;" edge="1" parent="oV6tERWwScY6kxOQjTkd-1" source="oV6tERWwScY6kxOQjTkd-18" target="oV6tERWwScY6kxOQjTkd-20">
          <mxGeometry relative="1" as="geometry" />
        </mxCell>
        <mxCell id="oV6tERWwScY6kxOQjTkd-18" value="BLOCK" style="shape=cube;whiteSpace=wrap;html=1;boundedLbl=1;backgroundOutline=1;darkOpacity=0.05;darkOpacity2=0.1;fillColor=#bac8d3;strokeColor=#23445d;fontSize=9;" vertex="1" parent="oV6tERWwScY6kxOQjTkd-1">
          <mxGeometry x="180" y="120" width="70" height="250" as="geometry" />
        </mxCell>
        <mxCell id="oV6tERWwScY6kxOQjTkd-14" value="Auto&lt;br&gt;Encoder" style="shape=cube;whiteSpace=wrap;html=1;boundedLbl=1;backgroundOutline=1;darkOpacity=0.05;darkOpacity2=0.1;fillColor=#d80073;strokeColor=#A50040;fontSize=9;fontColor=#ffffff;" vertex="1" parent="oV6tERWwScY6kxOQjTkd-1">
          <mxGeometry x="570" y="520" width="70" height="250" as="geometry" />
        </mxCell>
        <mxCell id="oV6tERWwScY6kxOQjTkd-13" value="CONV2D&lt;br&gt;BLOCK" style="shape=cube;whiteSpace=wrap;html=1;boundedLbl=1;backgroundOutline=1;darkOpacity=0.05;darkOpacity2=0.1;fillColor=#fff2cc;strokeColor=#d6b656;fontSize=9;" vertex="1" parent="oV6tERWwScY6kxOQjTkd-1">
          <mxGeometry x="520" y="520" width="70" height="250" as="geometry" />
        </mxCell>
        <mxCell id="oV6tERWwScY6kxOQjTkd-12" value="CONV2D&lt;br&gt;BLOCK" style="shape=cube;whiteSpace=wrap;html=1;boundedLbl=1;backgroundOutline=1;darkOpacity=0.05;darkOpacity2=0.1;fillColor=#fff2cc;strokeColor=#d6b656;fontSize=9;" vertex="1" parent="oV6tERWwScY6kxOQjTkd-1">
          <mxGeometry x="470" y="520" width="70" height="250" as="geometry" />
        </mxCell>
        <mxCell id="oV6tERWwScY6kxOQjTkd-6" style="edgeStyle=orthogonalEdgeStyle;rounded=0;orthogonalLoop=1;jettySize=auto;html=1;fontSize=9;" edge="1" parent="oV6tERWwScY6kxOQjTkd-1" source="oV6tERWwScY6kxOQjTkd-5">
          <mxGeometry relative="1" as="geometry">
            <mxPoint x="410" y="645" as="targetPoint" />
          </mxGeometry>
        </mxCell>
        <mxCell id="oV6tERWwScY6kxOQjTkd-5" value="ReLU" style="shape=cube;whiteSpace=wrap;html=1;boundedLbl=1;backgroundOutline=1;darkOpacity=0.05;darkOpacity2=0.1;fillColor=#f5f5f5;strokeColor=#666666;fontSize=9;fontColor=#333333;" vertex="1" parent="oV6tERWwScY6kxOQjTkd-1">
          <mxGeometry x="260" y="520" width="70" height="250" as="geometry" />
        </mxCell>
        <mxCell id="oV6tERWwScY6kxOQjTkd-2" value="RESNET&lt;br style=&quot;font-size: 9px;&quot;&gt;BLOCK" style="shape=cube;whiteSpace=wrap;html=1;boundedLbl=1;backgroundOutline=1;darkOpacity=0.05;darkOpacity2=0.1;fillColor=#dae8fc;strokeColor=#6c8ebf;fontSize=9;" vertex="1" parent="oV6tERWwScY6kxOQjTkd-1">
          <mxGeometry x="210" y="520" width="70" height="250" as="geometry" />
        </mxCell>
        <mxCell id="oV6tERWwScY6kxOQjTkd-11" style="edgeStyle=orthogonalEdgeStyle;rounded=0;orthogonalLoop=1;jettySize=auto;html=1;fontSize=9;" edge="1" parent="oV6tERWwScY6kxOQjTkd-1" source="oV6tERWwScY6kxOQjTkd-7">
          <mxGeometry relative="1" as="geometry">
            <mxPoint x="480" y="645" as="targetPoint" />
          </mxGeometry>
        </mxCell>
        <mxCell id="oV6tERWwScY6kxOQjTkd-7" value="" style="shape=orEllipse;perimeter=ellipsePerimeter;whiteSpace=wrap;html=1;backgroundOutline=1;fontSize=9;" vertex="1" parent="oV6tERWwScY6kxOQjTkd-1">
          <mxGeometry x="410" y="625" width="30" height="40" as="geometry" />
        </mxCell>
        <mxCell id="oV6tERWwScY6kxOQjTkd-9" style="edgeStyle=orthogonalEdgeStyle;rounded=0;orthogonalLoop=1;jettySize=auto;html=1;entryX=0.5;entryY=0;entryDx=0;entryDy=0;fontSize=9;" edge="1" parent="oV6tERWwScY6kxOQjTkd-1" source="oV6tERWwScY6kxOQjTkd-8" target="oV6tERWwScY6kxOQjTkd-7">
          <mxGeometry relative="1" as="geometry">
            <Array as="points">
              <mxPoint x="195" y="460" />
              <mxPoint x="425" y="460" />
            </Array>
          </mxGeometry>
        </mxCell>
        <mxCell id="oV6tERWwScY6kxOQjTkd-8" value="CONV2D&lt;br&gt;BLOCK" style="shape=cube;whiteSpace=wrap;html=1;boundedLbl=1;backgroundOutline=1;darkOpacity=0.05;darkOpacity2=0.1;fillColor=#fff2cc;strokeColor=#d6b656;fontSize=9;" vertex="1" parent="oV6tERWwScY6kxOQjTkd-1">
          <mxGeometry x="160" y="520" width="70" height="250" as="geometry" />
        </mxCell>
        <mxCell id="oV6tERWwScY6kxOQjTkd-10" value="" style="endArrow=classic;html=1;rounded=0;fontSize=9;" edge="1" parent="oV6tERWwScY6kxOQjTkd-1">
          <mxGeometry width="50" height="50" relative="1" as="geometry">
            <mxPoint x="80" y="644.5" as="sourcePoint" />
            <mxPoint x="160" y="644.5" as="targetPoint" />
          </mxGeometry>
        </mxCell>
        <mxCell id="oV6tERWwScY6kxOQjTkd-15" value="" style="endArrow=classic;html=1;rounded=0;fontSize=9;" edge="1" parent="oV6tERWwScY6kxOQjTkd-1">
          <mxGeometry width="50" height="50" relative="1" as="geometry">
            <mxPoint x="640" y="644.5" as="sourcePoint" />
            <mxPoint x="690" y="644.5" as="targetPoint" />
          </mxGeometry>
        </mxCell>
        <mxCell id="oV6tERWwScY6kxOQjTkd-16" value="" style="endArrow=classic;html=1;rounded=0;fontSize=9;" edge="1" parent="oV6tERWwScY6kxOQjTkd-1">
          <mxGeometry width="50" height="50" relative="1" as="geometry">
            <mxPoint x="70" y="240" as="sourcePoint" />
            <mxPoint x="120" y="240" as="targetPoint" />
          </mxGeometry>
        </mxCell>
        <mxCell id="oV6tERWwScY6kxOQjTkd-28" style="edgeStyle=orthogonalEdgeStyle;rounded=0;orthogonalLoop=1;jettySize=auto;html=1;entryX=0.5;entryY=0;entryDx=0;entryDy=0;fontSize=9;" edge="1" parent="oV6tERWwScY6kxOQjTkd-1" source="oV6tERWwScY6kxOQjTkd-17" target="oV6tERWwScY6kxOQjTkd-27">
          <mxGeometry relative="1" as="geometry">
            <Array as="points">
              <mxPoint x="155" y="80" />
              <mxPoint x="495" y="80" />
            </Array>
          </mxGeometry>
        </mxCell>
        <mxCell id="oV6tERWwScY6kxOQjTkd-17" value="CONV2D&lt;br&gt;BLOCK" style="shape=cube;whiteSpace=wrap;html=1;boundedLbl=1;backgroundOutline=1;darkOpacity=0.05;darkOpacity2=0.1;fillColor=#fff2cc;strokeColor=#d6b656;fontSize=9;" vertex="1" parent="oV6tERWwScY6kxOQjTkd-1">
          <mxGeometry x="120" y="120" width="70" height="250" as="geometry" />
        </mxCell>
        <mxCell id="oV6tERWwScY6kxOQjTkd-20" value="" style="rounded=0;whiteSpace=wrap;html=1;fontSize=9;fillColor=none;strokeWidth=1;" vertex="1" parent="oV6tERWwScY6kxOQjTkd-1">
          <mxGeometry x="60" y="440" width="680" height="350" as="geometry" />
        </mxCell>
        <mxCell id="oV6tERWwScY6kxOQjTkd-23" value="" style="endArrow=none;dashed=1;html=1;dashPattern=1 3;strokeWidth=2;rounded=0;fontSize=9;" edge="1" parent="oV6tERWwScY6kxOQjTkd-1">
          <mxGeometry width="50" height="50" relative="1" as="geometry">
            <mxPoint x="310" y="240" as="sourcePoint" />
            <mxPoint x="390" y="240" as="targetPoint" />
          </mxGeometry>
        </mxCell>
        <mxCell id="oV6tERWwScY6kxOQjTkd-26" style="edgeStyle=orthogonalEdgeStyle;rounded=0;orthogonalLoop=1;jettySize=auto;html=1;fontSize=9;" edge="1" parent="oV6tERWwScY6kxOQjTkd-1" source="oV6tERWwScY6kxOQjTkd-25" target="oV6tERWwScY6kxOQjTkd-27">
          <mxGeometry relative="1" as="geometry">
            <mxPoint x="500" y="245" as="targetPoint" />
          </mxGeometry>
        </mxCell>
        <mxCell id="oV6tERWwScY6kxOQjTkd-32" style="edgeStyle=orthogonalEdgeStyle;rounded=0;orthogonalLoop=1;jettySize=auto;html=1;entryX=0.5;entryY=0;entryDx=0;entryDy=0;fontSize=9;" edge="1" parent="oV6tERWwScY6kxOQjTkd-1" source="oV6tERWwScY6kxOQjTkd-25" target="oV6tERWwScY6kxOQjTkd-20">
          <mxGeometry relative="1" as="geometry" />
        </mxCell>
        <mxCell id="oV6tERWwScY6kxOQjTkd-25" value="BLOCK" style="shape=cube;whiteSpace=wrap;html=1;boundedLbl=1;backgroundOutline=1;darkOpacity=0.05;darkOpacity2=0.1;fillColor=#bac8d3;strokeColor=#23445d;fontSize=9;" vertex="1" parent="oV6tERWwScY6kxOQjTkd-1">
          <mxGeometry x="379" y="120" width="70" height="250" as="geometry" />
        </mxCell>
        <mxCell id="oV6tERWwScY6kxOQjTkd-29" style="edgeStyle=orthogonalEdgeStyle;rounded=0;orthogonalLoop=1;jettySize=auto;html=1;fontSize=9;" edge="1" parent="oV6tERWwScY6kxOQjTkd-1" source="oV6tERWwScY6kxOQjTkd-27">
          <mxGeometry relative="1" as="geometry">
            <mxPoint x="610" y="245" as="targetPoint" />
          </mxGeometry>
        </mxCell>
        <mxCell id="oV6tERWwScY6kxOQjTkd-27" value="" style="shape=orEllipse;perimeter=ellipsePerimeter;whiteSpace=wrap;html=1;backgroundOutline=1;fontSize=9;strokeWidth=4;" vertex="1" parent="oV6tERWwScY6kxOQjTkd-1">
          <mxGeometry x="480" y="227.5" width="30" height="35" as="geometry" />
        </mxCell>
        <mxCell id="oV6tERWwScY6kxOQjTkd-30" value="MaxPooling" style="shape=cube;whiteSpace=wrap;html=1;boundedLbl=1;backgroundOutline=1;darkOpacity=0.05;darkOpacity2=0.1;fillColor=#b0e3e6;strokeColor=#0e8088;fontSize=9;horizontal=0;" vertex="1" parent="oV6tERWwScY6kxOQjTkd-1">
          <mxGeometry x="610" y="152.5" width="40" height="185" as="geometry" />
        </mxCell>
        <mxCell id="IdDIcmcxiWaVZtbqf-ap-0" style="edgeStyle=orthogonalEdgeStyle;rounded=0;orthogonalLoop=1;jettySize=auto;html=1;exitX=0;exitY=0;exitDx=95;exitDy=50;entryX=0.5;entryY=0;entryDx=0;entryDy=0;horizontal=1;exitPerimeter=0;" edge="1" parent="oV6tERWwScY6kxOQjTkd-1" source="IdDIcmcxiWaVZtbqf-ap-1" target="IdDIcmcxiWaVZtbqf-ap-9">
          <mxGeometry relative="1" as="geometry" />
        </mxCell>
        <mxCell id="IdDIcmcxiWaVZtbqf-ap-1" value="ReLU" style="shape=cube;whiteSpace=wrap;html=1;boundedLbl=1;backgroundOutline=1;darkOpacity=0.05;darkOpacity2=0.1;fillColor=#dae8fc;strokeColor=#6c8ebf;horizontal=1;direction=east;" vertex="1" parent="oV6tERWwScY6kxOQjTkd-1">
          <mxGeometry x="140" y="1010" width="170" height="50" as="geometry" />
        </mxCell>
        <mxCell id="IdDIcmcxiWaVZtbqf-ap-2" value="BatchNorm" style="shape=cube;whiteSpace=wrap;html=1;boundedLbl=1;backgroundOutline=1;darkOpacity=0.05;darkOpacity2=0.1;fillColor=#f8cecc;fontStyle=1;strokeColor=#b85450;horizontal=1;direction=east;" vertex="1" parent="oV6tERWwScY6kxOQjTkd-1">
          <mxGeometry x="140" y="980" width="170" height="50" as="geometry" />
        </mxCell>
        <mxCell id="IdDIcmcxiWaVZtbqf-ap-3" value="Conv2D" style="shape=cube;whiteSpace=wrap;html=1;boundedLbl=1;backgroundOutline=1;darkOpacity=0.05;darkOpacity2=0.1;fillColor=#FFF2CC;fontStyle=1;horizontal=1;direction=east;" vertex="1" parent="oV6tERWwScY6kxOQjTkd-1">
          <mxGeometry x="140" y="950" width="170" height="50" as="geometry" />
        </mxCell>
        <mxCell id="IdDIcmcxiWaVZtbqf-ap-4" value="ReLU" style="shape=cube;whiteSpace=wrap;html=1;boundedLbl=1;backgroundOutline=1;darkOpacity=0.05;darkOpacity2=0.1;fillColor=#dae8fc;strokeColor=#6c8ebf;horizontal=1;direction=east;" vertex="1" parent="oV6tERWwScY6kxOQjTkd-1">
          <mxGeometry x="140" y="920" width="170" height="50" as="geometry" />
        </mxCell>
        <mxCell id="IdDIcmcxiWaVZtbqf-ap-5" value="BatchNorm" style="shape=cube;whiteSpace=wrap;html=1;boundedLbl=1;backgroundOutline=1;darkOpacity=0.05;darkOpacity2=0.1;fillColor=#f8cecc;fontStyle=1;strokeColor=#b85450;horizontal=1;direction=east;" vertex="1" parent="oV6tERWwScY6kxOQjTkd-1">
          <mxGeometry x="140" y="890" width="170" height="50" as="geometry" />
        </mxCell>
        <mxCell id="IdDIcmcxiWaVZtbqf-ap-6" style="edgeStyle=orthogonalEdgeStyle;rounded=0;orthogonalLoop=1;jettySize=auto;html=1;exitX=0;exitY=0;exitDx=0;exitDy=15;entryX=0;entryY=0.5;entryDx=0;entryDy=0;horizontal=1;exitPerimeter=0;" edge="1" parent="oV6tERWwScY6kxOQjTkd-1" source="IdDIcmcxiWaVZtbqf-ap-7" target="IdDIcmcxiWaVZtbqf-ap-9">
          <mxGeometry relative="1" as="geometry" />
        </mxCell>
        <mxCell id="IdDIcmcxiWaVZtbqf-ap-7" value="Conv2D" style="shape=cube;whiteSpace=wrap;html=1;boundedLbl=1;backgroundOutline=1;darkOpacity=0.05;darkOpacity2=0.1;fillColor=#FFF2CC;fontStyle=1;horizontal=1;direction=east;" vertex="1" parent="oV6tERWwScY6kxOQjTkd-1">
          <mxGeometry x="140" y="860" width="170" height="50" as="geometry" />
        </mxCell>
        <mxCell id="IdDIcmcxiWaVZtbqf-ap-8" style="edgeStyle=orthogonalEdgeStyle;rounded=0;orthogonalLoop=1;jettySize=auto;html=1;exitX=0.5;exitY=1;exitDx=0;exitDy=0;horizontal=1;entryX=0.5;entryY=1;entryDx=0;entryDy=0;" edge="1" parent="oV6tERWwScY6kxOQjTkd-1" source="IdDIcmcxiWaVZtbqf-ap-9">
          <mxGeometry relative="1" as="geometry">
            <mxPoint x="230" y="1140" as="targetPoint" />
          </mxGeometry>
        </mxCell>
        <mxCell id="IdDIcmcxiWaVZtbqf-ap-9" value="" style="shape=orEllipse;perimeter=ellipsePerimeter;whiteSpace=wrap;html=1;backgroundOutline=1;fillColor=#ffe6cc;strokeColor=#d79b00;horizontal=1;direction=east;" vertex="1" parent="oV6tERWwScY6kxOQjTkd-1">
          <mxGeometry x="220" y="1080" width="20" height="25" as="geometry" />
        </mxCell>
        <mxCell id="IdDIcmcxiWaVZtbqf-ap-10" value="" style="endArrow=classic;html=1;rounded=0;horizontal=1;" edge="1" parent="oV6tERWwScY6kxOQjTkd-1">
          <mxGeometry width="50" height="50" relative="1" as="geometry">
            <mxPoint x="225" y="830" as="sourcePoint" />
            <mxPoint x="225" y="870" as="targetPoint" />
            <Array as="points" />
          </mxGeometry>
        </mxCell>
        <mxCell id="IdDIcmcxiWaVZtbqf-ap-12" value="" style="whiteSpace=wrap;html=1;aspect=fixed;fontSize=9;strokeWidth=2;fillColor=none;" vertex="1" parent="oV6tERWwScY6kxOQjTkd-1">
          <mxGeometry x="48" y="826" width="334" height="334" as="geometry" />
        </mxCell>
        <mxCell id="IdDIcmcxiWaVZtbqf-ap-14" value="" style="endArrow=classic;html=1;rounded=0;fontSize=9;exitX=0.279;exitY=0.943;exitDx=0;exitDy=0;exitPerimeter=0;strokeWidth=2;" edge="1" parent="oV6tERWwScY6kxOQjTkd-1" source="oV6tERWwScY6kxOQjTkd-20" target="IdDIcmcxiWaVZtbqf-ap-12">
          <mxGeometry width="50" height="50" relative="1" as="geometry">
            <mxPoint x="480" y="970" as="sourcePoint" />
            <mxPoint x="530" y="920" as="targetPoint" />
          </mxGeometry>
        </mxCell>
        <mxCell id="IdDIcmcxiWaVZtbqf-ap-35" style="edgeStyle=orthogonalEdgeStyle;rounded=0;orthogonalLoop=1;jettySize=auto;html=1;exitX=0;exitY=0;exitDx=10;exitDy=0;exitPerimeter=0;entryX=0.5;entryY=0;entryDx=0;entryDy=0;fontSize=9;strokeWidth=2;" edge="1" parent="oV6tERWwScY6kxOQjTkd-1" source="IdDIcmcxiWaVZtbqf-ap-16" target="IdDIcmcxiWaVZtbqf-ap-41">
          <mxGeometry relative="1" as="geometry" />
        </mxCell>
        <mxCell id="IdDIcmcxiWaVZtbqf-ap-16" value="" style="shape=cube;whiteSpace=wrap;html=1;boundedLbl=1;backgroundOutline=1;darkOpacity=0.05;darkOpacity2=0.1;fontSize=9;strokeWidth=1;fillColor=#fff2cc;strokeColor=#d6b656;" vertex="1" parent="oV6tERWwScY6kxOQjTkd-1">
          <mxGeometry x="400" y="890" width="40" height="160" as="geometry" />
        </mxCell>
        <mxCell id="IdDIcmcxiWaVZtbqf-ap-40" style="edgeStyle=orthogonalEdgeStyle;rounded=0;orthogonalLoop=1;jettySize=auto;html=1;fontSize=9;strokeWidth=2;" edge="1" parent="oV6tERWwScY6kxOQjTkd-1" source="IdDIcmcxiWaVZtbqf-ap-31">
          <mxGeometry relative="1" as="geometry">
            <mxPoint x="880" y="960" as="targetPoint" />
          </mxGeometry>
        </mxCell>
        <mxCell id="IdDIcmcxiWaVZtbqf-ap-31" value="" style="shape=cube;whiteSpace=wrap;html=1;boundedLbl=1;backgroundOutline=1;darkOpacity=0.05;darkOpacity2=0.1;fontSize=9;strokeWidth=1;fillColor=#1ba1e2;strokeColor=#006EAF;fontColor=#ffffff;" vertex="1" parent="oV6tERWwScY6kxOQjTkd-1">
          <mxGeometry x="780" y="890" width="40" height="160" as="geometry" />
        </mxCell>
        <mxCell id="IdDIcmcxiWaVZtbqf-ap-32" value="" style="shape=cube;whiteSpace=wrap;html=1;boundedLbl=1;backgroundOutline=1;darkOpacity=0.05;darkOpacity2=0.1;fontSize=9;strokeWidth=1;fillColor=#fff2cc;strokeColor=#d6b656;" vertex="1" parent="oV6tERWwScY6kxOQjTkd-1">
          <mxGeometry x="760" y="890" width="40" height="160" as="geometry" />
        </mxCell>
        <mxCell id="IdDIcmcxiWaVZtbqf-ap-33" value="" style="shape=cube;whiteSpace=wrap;html=1;boundedLbl=1;backgroundOutline=1;darkOpacity=0.05;darkOpacity2=0.1;fontSize=9;strokeWidth=1;fillColor=#60a917;fontColor=#ffffff;strokeColor=#2D7600;" vertex="1" parent="oV6tERWwScY6kxOQjTkd-1">
          <mxGeometry x="740" y="890" width="40" height="160" as="geometry" />
        </mxCell>
        <mxCell id="IdDIcmcxiWaVZtbqf-ap-39" style="edgeStyle=orthogonalEdgeStyle;rounded=0;orthogonalLoop=1;jettySize=auto;html=1;exitX=1;exitY=0.5;exitDx=0;exitDy=0;fontSize=9;strokeWidth=2;" edge="1" parent="oV6tERWwScY6kxOQjTkd-1" source="IdDIcmcxiWaVZtbqf-ap-36">
          <mxGeometry relative="1" as="geometry">
            <mxPoint x="750" y="970" as="targetPoint" />
          </mxGeometry>
        </mxCell>
        <mxCell id="IdDIcmcxiWaVZtbqf-ap-36" value="" style="shape=orEllipse;perimeter=ellipsePerimeter;whiteSpace=wrap;html=1;backgroundOutline=1;fontSize=9;strokeWidth=1;" vertex="1" parent="oV6tERWwScY6kxOQjTkd-1">
          <mxGeometry x="700" y="960" width="20" height="20" as="geometry" />
        </mxCell>
        <mxCell id="IdDIcmcxiWaVZtbqf-ap-44" style="edgeStyle=orthogonalEdgeStyle;rounded=0;orthogonalLoop=1;jettySize=auto;html=1;exitX=1;exitY=0.5;exitDx=0;exitDy=0;fontSize=9;strokeWidth=2;" edge="1" parent="oV6tERWwScY6kxOQjTkd-1" source="IdDIcmcxiWaVZtbqf-ap-41">
          <mxGeometry relative="1" as="geometry">
            <mxPoint x="920" y="960" as="targetPoint" />
          </mxGeometry>
        </mxCell>
        <mxCell id="IdDIcmcxiWaVZtbqf-ap-41" value="" style="shape=orEllipse;perimeter=ellipsePerimeter;whiteSpace=wrap;html=1;backgroundOutline=1;fontSize=9;strokeWidth=1;" vertex="1" parent="oV6tERWwScY6kxOQjTkd-1">
          <mxGeometry x="880" y="950" width="20" height="20" as="geometry" />
        </mxCell>
        <mxCell id="IdDIcmcxiWaVZtbqf-ap-45" value="" style="shape=cube;whiteSpace=wrap;html=1;boundedLbl=1;backgroundOutline=1;darkOpacity=0.05;darkOpacity2=0.1;fontSize=9;strokeWidth=1;fillColor=#fff2cc;strokeColor=#d6b656;" vertex="1" parent="oV6tERWwScY6kxOQjTkd-1">
          <mxGeometry x="920" y="895" width="40" height="160" as="geometry" />
        </mxCell>
      </root>
    </mxGraphModel>
  </diagram>
</mxfile>
